<?xml version="1.0" encoding="UTF-8"?>
<svg id="Layer_1" data-name="Layer 1" xmlns="http://www.w3.org/2000/svg" viewBox="0 0 12 12">
  <defs>
    <style>
      .cls-1 {
        stroke-width: 0px;
      }
    </style>
  </defs>
  <path class="cls-1" d="M0,0v12h12V0H0ZM5.41,10.28l-3.64-1.51v-3.03l3.64,1.51v3.03ZM5.41,6.26l-3.64-1.51V1.72l2.38.99c.06.75.57,1.37,1.26,1.58v1.97ZM4.75,2.52c0-.69.56-1.25,1.25-1.25s1.25.56,1.25,1.25-.56,1.25-1.25,1.25-1.25-.56-1.25-1.25ZM10.23,8.77l-3.63,1.51v-3.03l3.63-1.51v3.03ZM10.23,4.75l-3.63,1.51v-1.97c.69-.22,1.2-.83,1.26-1.58l2.37-.99v3.03Z"/>
</svg>