<?xml version="1.0" encoding="UTF-8"?>
<svg id="Layer_1" data-name="Layer 1" xmlns="http://www.w3.org/2000/svg" viewBox="0 0 12 12">
  <defs>
    <style>
      .cls-1 {
        stroke-width: 0px;
      }
    </style>
  </defs>
  <path class="cls-1" d="M6.5,8l-.23-.35c-.21.04-.4.03-.62-.01-.9-.19-1.49-1.08-1.3-1.99.04-.2.12-.38.24-.55l-.24-.38-.17-.24c-1.13,1.01-1.55,2.39-.93,3.33.6.93,2.04,1.09,3.42.45l-.17-.26ZM6.5,8l-.23-.35c-.21.04-.4.03-.62-.01-.9-.19-1.49-1.08-1.3-1.99.04-.2.12-.38.24-.55l-.24-.38-.17-.24c-1.13,1.01-1.55,2.39-.93,3.33.6.93,2.04,1.09,3.42.45l-.17-.26ZM6.5,8l-.23-.35c-.21.04-.4.03-.62-.01-.9-.19-1.49-1.08-1.3-1.99.04-.2.12-.38.24-.55l-.24-.38-.17-.24c-1.13,1.01-1.55,2.39-.93,3.33.6.93,2.04,1.09,3.42.45l-.17-.26ZM6.5,8l-.23-.35c-.21.04-.4.03-.62-.01-.9-.19-1.49-1.08-1.3-1.99.04-.2.12-.38.24-.55l-.24-.38-.17-.24c-1.13,1.01-1.55,2.39-.93,3.33.6.93,2.04,1.09,3.42.45l-.17-.26ZM0,0v12h12V0H0ZM7.37,2.3c2.17.12,3.32,1.86,2.57,3.91-.25.67-.69,1.31-1.23,1.83l-.57-.86c.87-.96,1.16-2.16.61-2.99-.55-.84-1.76-1.05-2.99-.63l-.56-.86c.7-.29,1.44-.44,2.17-.4ZM10.96,7.55c-.42.78-1.02,1.49-1.76,2.08l.43.65-1.14.75-.43-.66-.49-.75-.35-.52c-.83.42-1.72.63-2.6.59-2.17-.11-3.32-1.87-2.56-3.9.31-.83.87-1.56,1.57-2.14l-.34-.52c-.87.71-1.5,1.61-1.82,2.57-.04.11-.08.23-.09.34l-.33-1.61c.42-.76,1.02-1.47,1.75-2.05l-.43-.66,1.14-.75.43.66.5.75.88,1.35.17.26.23.36c.19-.04.37-.04.57,0h.05c.9.19,1.49,1.08,1.3,1.99,0,.02,0,.03-.02.04-.05.18-.12.36-.22.51l.24.36.17.26.89,1.36c.87-.7,1.51-1.6,1.84-2.57.04-.14.08-.26.09-.4l.33,1.59v.06ZM6.27,7.65c-.21.04-.4.03-.62-.01-.9-.19-1.49-1.08-1.3-1.99.04-.2.12-.38.24-.55l-.24-.38-.17-.24c-1.13,1.01-1.55,2.39-.93,3.33.6.93,2.04,1.09,3.42.45l-.17-.26-.23-.35ZM6.5,8l-.23-.35c-.21.04-.4.03-.62-.01-.9-.19-1.49-1.08-1.3-1.99.04-.2.12-.38.24-.55l-.24-.38-.17-.24c-1.13,1.01-1.55,2.39-.93,3.33.6.93,2.04,1.09,3.42.45l-.17-.26ZM6.5,8l-.23-.35c-.21.04-.4.03-.62-.01-.9-.19-1.49-1.08-1.3-1.99.04-.2.12-.38.24-.55l-.24-.38-.17-.24c-1.13,1.01-1.55,2.39-.93,3.33.6.93,2.04,1.09,3.42.45l-.17-.26ZM6.5,8l-.23-.35c-.21.04-.4.03-.62-.01-.9-.19-1.49-1.08-1.3-1.99.04-.2.12-.38.24-.55l-.24-.38-.17-.24c-1.13,1.01-1.55,2.39-.93,3.33.6.93,2.04,1.09,3.42.45l-.17-.26ZM6.5,8l-.23-.35c-.21.04-.4.03-.62-.01-.9-.19-1.49-1.08-1.3-1.99.04-.2.12-.38.24-.55l-.24-.38-.17-.24c-1.13,1.01-1.55,2.39-.93,3.33.6.93,2.04,1.09,3.42.45l-.17-.26Z"/>
</svg>