<?xml version="1.0" encoding="UTF-8"?>
<svg id="Layer_1" data-name="Layer 1" xmlns="http://www.w3.org/2000/svg" viewBox="0 0 12 12">
  <defs>
    <style>
      .cls-1 {
        stroke-width: 0px;
      }
    </style>
  </defs>
  <path class="cls-1" d="M0,0v12h12V0H0ZM5.99,1.27c.69,0,1.25.56,1.25,1.25s-.56,1.25-1.25,1.25-1.25-.56-1.25-1.25.56-1.25,1.25-1.25ZM5.99,10.73l-2.63-3.11,1.59-3.4c.3.18.66.29,1.04.29s.74-.1,1.04-.29l1.6,3.4-2.64,3.11Z"/>
  <path class="cls-1" d="M7.35,7.47l-1.36,1.6-1.35-1.6.85-1.81c.16.04.34.06.5.06s.34-.02.5-.06l.85,1.81Z"/>
</svg>