<?xml version="1.0" encoding="utf-8"?>
<!-- Generator: Adobe Illustrator 28.1.0, SVG Export Plug-In . SVG Version: 6.00 Build 0)  -->
<svg version="1.1" id="Layer_3" xmlns="http://www.w3.org/2000/svg" xmlns:xlink="http://www.w3.org/1999/xlink" x="0px" y="0px"
	 viewBox="0 0 612 792" style="enable-background:new 0 0 612 792;" xml:space="preserve">
<style type="text/css">
	.st0{fill:#353535;}
</style>
<g>
	<path class="st0" d="M32.4,405.4l176.1,120.2l371-120.2l-371-120.2L32.4,405.4z M222.4,405.4c0,23.7-19.2,42.8-42.8,42.8
		c-23.7,0-42.8-19.2-42.8-42.8s19.2-42.8,42.8-42.8C203.2,362.6,222.4,381.8,222.4,405.4z"/>
	
		<rect x="523" y="304.7" transform="matrix(6.123234e-17 -1 1 6.123234e-17 237.7824 884.2324)" class="st0" width="76" height="37.1"/>
	
		<rect x="523" y="469.1" transform="matrix(6.123234e-17 -1 1 6.123234e-17 73.3424 1048.6724)" class="st0" width="76" height="37.1"/>
</g>
</svg>
